/* XPM */
static char * microsoft2_xpm[] = {
"66 44 536 2",
"  	c None",
". 	c #FFFFFF",
"+ 	c #FEFEFE",
"@ 	c #FDFDFD",
"# 	c #FCFCFC",
"$ 	c #FBFBFB",
"% 	c #FAFAFA",
"& 	c #F9F9F9",
"* 	c #F7F7F7",
"= 	c #F6F6F6",
"- 	c #F4F4F4",
"; 	c #F3F3F3",
"> 	c #F8F8F8",
", 	c #F5F5F5",
"' 	c #DFDFF0",
") 	c #A7A7D6",
"! 	c #5454A8",
"~ 	c #5353A6",
"{ 	c #5252A4",
"] 	c #A1A1CE",
"^ 	c #F0F0F0",
"/ 	c #F1F1F1",
"( 	c #5858DD",
"_ 	c #0606CE",
": 	c #0606CC",
"< 	c #0606CA",
"[ 	c #0606C8",
"} 	c #0606C5",
"| 	c #0606C2",
"1 	c #0606BF",
"2 	c #9999D9",
"3 	c #E6E6E6",
"4 	c #EAEAEA",
"5 	c #EFEFEF",
"6 	c #5757C4",
"7 	c #040499",
"8 	c #040496",
"9 	c #040493",
"0 	c #040490",
"a 	c #04048D",
"b 	c #04048A",
"c 	c #040487",
"d 	c #E9E9E9",
"e 	c #EDEDED",
"f 	c #F2F2F2",
"g 	c #7070BD",
"h 	c #03036E",
"i 	c #03036B",
"j 	c #5151A4",
"k 	c #4F4FA1",
"l 	c #35358D",
"m 	c #03035E",
"n 	c #1C1C74",
"o 	c #7F7FB7",
"p 	c #9999C4",
"q 	c #020252",
"r 	c #9B9BC5",
"s 	c #EBEBEB",
"t 	c #C2C2EE",
"u 	c #5454D8",
"v 	c #0606C3",
"w 	c #0606C0",
"x 	c #0606BE",
"y 	c #4747C3",
"z 	c #CECECE",
"A 	c #D5D5D5",
"B 	c #DFDFDF",
"C 	c #2020AA",
"D 	c #040498",
"E 	c #040495",
"F 	c #040492",
"G 	c #04048F",
"H 	c #4747AC",
"I 	c #A0A0C3",
"J 	c #CFCFCF",
"K 	c #D6D6D6",
"L 	c #DEDEDE",
"M 	c #E7E7E7",
"N 	c #5353AD",
"O 	c #030370",
"P 	c #1D1D84",
"Q 	c #CCCCDC",
"R 	c #DDDDDD",
"S 	c #D7D7D7",
"T 	c #D3D3D3",
"U 	c #A3A3C2",
"V 	c #1A1A71",
"W 	c #030357",
"X 	c #020254",
"Y 	c #020251",
"Z 	c #8F8FB9",
"` 	c #D9D9D9",
" .	c #ECECEC",
"..	c #3636CB",
"+.	c #1B1BC1",
"@.	c #0505BB",
"#.	c #0505B9",
"$.	c #AFAFAF",
"%.	c #BABABA",
"&.	c #C9C9C9",
"*.	c #DADADA",
"=.	c #DEDEF1",
"-.	c #04049A",
";.	c #040497",
">.	c #040494",
",.	c #040491",
"'.	c #04048E",
").	c #AEAEAE",
"!.	c #ADADAD",
"~.	c #B3B3B3",
"{.	c #BFBFBF",
"].	c #CDCDCD",
"^.	c #DBDBDB",
"/.	c #6B6BB9",
"(.	c #030373",
"_.	c #03036F",
":.	c #C6C6D7",
"<.	c #D4D4D4",
"[.	c #CBCBCB",
"}.	c #C5C5C5",
"|.	c #C2C2C2",
"1.	c #ACACBB",
"2.	c #18186C",
"3.	c #020253",
"4.	c #020250",
"5.	c #7F7FA9",
"6.	c #E4E4E4",
"7.	c #E8E8E8",
"8.	c #9292D2",
"9.	c #0606C1",
"0.	c #6464B8",
"a.	c #0505BC",
"b.	c #0505BA",
"c.	c #0505B7",
"d.	c #5F5F9D",
"e.	c #9B9B9B",
"f.	c #C7C7C7",
"g.	c #7070CB",
"h.	c #6363BD",
"i.	c #8D8D8D",
"j.	c #8C8C8C",
"k.	c #979797",
"l.	c #A9A9A9",
"m.	c #BEBEBE",
"n.	c #D1D1D1",
"o.	c #E0E0E0",
"p.	c #030374",
"q.	c #030371",
"r.	c #4B4BA2",
"s.	c #C0C0C0",
"t.	c #B8B8B8",
"u.	c #B5B5B5",
"v.	c #B6B6B6",
"w.	c #B9B9B9",
"x.	c #67679F",
"y.	c #02024F",
"z.	c #72729C",
"A.	c #ACACAC",
"B.	c #C6C6C6",
"C.	c #D8D8D8",
"D.	c #9090D0",
"E.	c #6F6FAF",
"F.	c #2323B2",
"G.	c #0505B5",
"H.	c #1D1DA7",
"I.	c #7F7F7F",
"J.	c #B4B4B4",
"K.	c #E5E5E5",
"L.	c #1E1EA8",
"M.	c #1D1DA4",
"N.	c #8A8AC1",
"O.	c #04048C",
"P.	c #707070",
"Q.	c #727272",
"R.	c #818181",
"S.	c #9A9A9A",
"T.	c #CCCCCC",
"U.	c #9494C5",
"V.	c #46469D",
"W.	c #BCBCBC",
"X.	c #A7A7A7",
"Y.	c #AAAAAA",
"Z.	c #B2B2B2",
"`.	c #BDBDBD",
" +	c #151567",
".+	c #02024E",
"++	c #696992",
"@+	c #A4A4A4",
"#+	c #B7B7B7",
"$+	c #E2E2E2",
"%+	c #6F6FAE",
"&+	c #4D4DA0",
"*+	c #0505B3",
"=+	c #0505B0",
"-+	c #5E5E73",
";+	c #828282",
">+	c #A2A2A2",
",+	c #DCDCDC",
"'+	c #A5A5DD",
")+	c #7B7BC4",
"!+	c #8282B9",
"~+	c #5E5E5E",
"{+	c #636363",
"]+	c #777777",
"^+	c #949494",
"/+	c #030372",
"(+	c #18187E",
"_+	c #9D9D9D",
":+	c #C1C1C1",
"<+	c #C4C4C4",
"[+	c #545494",
"}+	c #686891",
"|+	c #959595",
"1+	c #9C9C9C",
"2+	c #C8C8C8",
"3+	c #9696D5",
"4+	c #7474B2",
"5+	c #7E7E92",
"6+	c #0505B1",
"7+	c #0505AE",
"8+	c #373786",
"9+	c #747474",
"0+	c #929292",
"a+	c #D2D2D2",
"b+	c #5252BE",
"c+	c #BCBCCF",
"d+	c #7B7BB2",
"e+	c #040489",
"f+	c #565656",
"g+	c #5D5D5D",
"h+	c #D0D0D0",
"i+	c #9494C6",
"j+	c #696998",
"k+	c #8F8F8F",
"l+	c #919191",
"m+	c #A1A1A1",
"n+	c #9A9AB7",
"o+	c #02024D",
"p+	c #6D6D96",
"q+	c #999999",
"r+	c #EEEEEE",
"s+	c #9A9AD9",
"t+	c #7A7AB8",
"u+	c #2C2CA3",
"v+	c #0505AC",
"w+	c #18189D",
"x+	c #6B6B6B",
"y+	c #868686",
"z+	c #A8A8A8",
"A+	c #D1D1E4",
"B+	c #3535AD",
"C+	c #7676AC",
"D+	c #767676",
"E+	c #989898",
"F+	c #BBBBBB",
"G+	c #03036D",
"H+	c #03036A",
"I+	c #030367",
"J+	c #595987",
"K+	c #888888",
"L+	c #CACACA",
"M+	c #8181AB",
"N+	c #9D9DAB",
"O+	c #A5A5A5",
"P+	c #A6A6A6",
"Q+	c #9D9DDC",
"R+	c #0505B4",
"S+	c #8080BD",
"T+	c #5B5B97",
"U+	c #0505AA",
"V+	c #0505A7",
"W+	c #5C5C6F",
"X+	c #7D7D7D",
"Y+	c #8080CA",
"Z+	c #9191C8",
"`+	c #C3C3C3",
" @	c #7272A8",
".@	c #04048B",
"+@	c #040485",
"@@	c #5A5A5A",
"#@	c #616161",
"$@	c #7A7A7A",
"%@	c #6262AD",
"&@	c #030368",
"*@	c #030366",
"=@	c #030363",
"-@	c #1E1E75",
";@	c #62628E",
">@	c #ABABAB",
",@	c #E3E3E3",
"'@	c #9F9FDD",
")@	c #0505B2",
"!@	c #8383C0",
"~@	c #909090",
"{@	c #0505A6",
"]@	c #30308F",
"^@	c #B0B0B0",
"/@	c #3434AD",
"(@	c #1C1CA0",
"_@	c #6F6FA5",
":@	c #040484",
"<@	c #5F5F5F",
"[@	c #666666",
"}@	c #9E9E9E",
"|@	c #434399",
"1@	c #030364",
"2@	c #030361",
"3@	c #03035F",
"4@	c #03035B",
"5@	c #14146A",
"6@	c #505093",
"7@	c #AEAEBD",
"8@	c #A0A0DD",
"9@	c #0505AF",
"0@	c #8686C2",
"a@	c #3030A2",
"b@	c #0505A5",
"c@	c #0505A3",
"d@	c #10109E",
"e@	c #878787",
"f@	c #9595BB",
"g@	c #6060B8",
"h@	c #6D6DA3",
"i@	c #040488",
"j@	c #040482",
"k@	c #656565",
"l@	c #6A6A6A",
"m@	c #A0A0A0",
"n@	c #62629E",
"o@	c #131371",
"p@	c #030360",
"q@	c #03035D",
"r@	c #03035A",
"s@	c #545493",
"t@	c #ADADBB",
"u@	c #A0A0DC",
"v@	c #8787C3",
"w@	c #9F9F9F",
"x@	c #61619C",
"y@	c #0505A2",
"z@	c #0505A1",
"A@	c #05059E",
"B@	c #58587E",
"C@	c #5151AB",
"D@	c #9C9CC0",
"E@	c #B1B1B1",
"F@	c #6D6DA2",
"G@	c #040483",
"H@	c #040480",
"I@	c #6D6D6D",
"J@	c #4B4B85",
"K@	c #0F0F67",
"L@	c #030359",
"M@	c #020256",
"N@	c #02024A",
"O@	c #7979A1",
"P@	c #A1A1DD",
"Q@	c #8989C4",
"R@	c #1414A1",
"S@	c #05059C",
"T@	c #34348F",
"U@	c #787878",
"V@	c #2B2BA1",
"W@	c #040481",
"X@	c #04047F",
"Y@	c #6E6E6E",
"Z@	c #6F6F6F",
"`@	c #838383",
" #	c #5D5D7B",
".#	c #282872",
"+#	c #02024B",
"@#	c #020249",
"##	c #020245",
"$#	c #83839E",
"%#	c #A1A1DC",
"&#	c #4747A3",
"*#	c #101097",
"=#	c #737373",
"-#	c #56568E",
";#	c #5D5DA4",
">#	c #6E6EA3",
",#	c #04047C",
"'#	c #717171",
")#	c #8A8A8A",
"!#	c #7E7E7E",
"~#	c #6B6B7A",
"{#	c #29296F",
"]#	c #020247",
"^#	c #020244",
"/#	c #121256",
"(#	c #0505A4",
"_#	c #8989C3",
":#	c #7F7FA5",
"<#	c #4C4C83",
"[#	c #1D1D93",
"}#	c #848496",
"|#	c #A3A3A3",
"1#	c #7070A4",
"2#	c #04047D",
"3#	c #04047B",
"4#	c #757575",
"5#	c #9F9FCE",
"6#	c #D6D6E7",
"7#	c #969696",
"8#	c #898989",
"9#	c #808080",
"0#	c #2A2A6E",
"a#	c #020243",
"b#	c #020240",
"c#	c #7A7A88",
"d#	c #A1A1DB",
"e#	c #16169B",
"f#	c #1C1C92",
"g#	c #2A2A8F",
"h#	c #7373A7",
"i#	c #04047E",
"j#	c #040478",
"k#	c #848484",
"l#	c #6C6CB4",
"m#	c #7B7B89",
"n#	c #020241",
"o#	c #02023E",
"p#	c #515178",
"q#	c #A1A1DA",
"r#	c #8A8AC3",
"s#	c #4F4FA8",
"t#	c #535377",
"u#	c #7676AA",
"v#	c #040479",
"w#	c #030377",
"x#	c #797979",
"y#	c #1D1D7B",
"z#	c #222268",
"A#	c #02023D",
"B#	c #4C4C72",
"C#	c #05059B",
"D#	c #8989C2",
"E#	c #A2A2B5",
"F#	c #0F0F8B",
"G#	c #626262",
"H#	c #7C7C7C",
"I#	c #7A7AAD",
"J#	c #9595C2",
"K#	c #3B3B7B",
"L#	c #02023C",
"M#	c #5A5A74",
"N#	c #8B8B8B",
"O#	c #A0A0D8",
"P#	c #7272BC",
"Q#	c #2A2A9D",
"R#	c #313185",
"S#	c #939393",
"T#	c #7E7EB1",
"U#	c #030378",
"V#	c #030375",
"W#	c #7B7B7B",
"X#	c #34348C",
"Y#	c #1A1A72",
"Z#	c #E1E1E1",
"`#	c #424282",
" $	c #111150",
".$	c #5151BC",
"+$	c #4545AE",
"@$	c #6969AF",
"#$	c #040486",
"$$	c #656576",
"%$	c #646464",
"&$	c #696969",
"*$	c #8282B4",
"=$	c #4B4B9A",
"-$	c #03035C",
";$	c #3F3F8B",
">$	c #C8C8D6",
",$	c #575786",
"'$	c #858585",
")$	c #BFBFE4",
"!$	c #6363AB",
"~$	c #ABABBD",
"{$	c #242492",
"]$	c #2E2E93",
"^$	c #525281",
"/$	c #494998",
"($	c #020255",
"_$	c #383882",
":$	c #4E4E8D",
"<$	c #41417E",
"[$	c #8E8ED7",
"}$	c #1F1FA3",
"|$	c #5C5CA2",
"1$	c #2C2C99",
"2$	c #5D5DA0",
"3$	c #8E8E8E",
"4$	c #555596",
"5$	c #3C3C97",
"6$	c #03036C",
"7$	c #0F0F71",
"8$	c #2C2C7E",
"9$	c #484895",
"0$	c #030358",
"a$	c #7A7AA6",
"b$	c #252575",
"c$	c #131362",
"d$	c #4D4D8B",
"e$	c #7F7FA8",
"f$	c #8C8CB4",
"g$	c #7C7CAE",
"h$	c #1B1B5F",
"i$	c #5F5F96",
"j$	c #C4C4E9",
"k$	c #A5A5DC",
"l$	c #9E9ED5",
"m$	c #9494CB",
"n$	c #8686BD",
"o$	c #7777AD",
"p$	c #6A6AA0",
"q$	c #65659A",
"r$	c #79799D",
"s$	c #8383A5",
"t$	c #7E7EB0",
"u$	c #8888B9",
"v$	c #8989B9",
"w$	c #8080B0",
"x$	c #7171A1",
"y$	c #5F5F8E",
"z$	c #515180",
"A$	c #4E4E7C",
"B$	c #565683",
"C$	c #A3A3C1",
"D$	c #9C9CBA",
"E$	c #747490",
"F$	c #333379",
"G$	c #13135F",
"H$	c #020246",
"I$	c #19195D",
"J$	c #606099",
"K$	c #A4A4BF",
". . . . . . . . . . . . . . . . . . . . . . . . . . . . . . . . . . . . . . . . . . . . . . . . . . . . . . . . . . . . . . . . . . ",
". . . . . . . . . . . . . . . . . . . . . . . . . . . . . . . . . . . . . . . . . . . . . . . . . . . . . . . . . . . . . . . . . . ",
". . . . . . . . . . . . . . . . . . . . . . . . . . . . . . . . . . . . . . . . . . . . . . . . . . . . . . . . . . . . . . . . . . ",
". . . . . . . . . . . . . . . . . . . . . . . . . . . . . . . . . . . . . . . . . . . . . . . . . . . . . . . . . . . . . . . . . . ",
". . . . . . . . . . . . . . . . . . . . . . . . . . . . . . . . . . . . . . . . . . . . . . . . . . . . . . . . . . . . . . . . . . ",
". . . . . . . . . . . . . . . . . . . . . . . . . . . . . . . . . . . . . . . . . . . . . . . . . . . . . . . . . . . . . . . . . . ",
". . . . . . . . . . . . . . . . . . . . . . . . . . . . . . . . . . . . . . . . . . . . . . . . . . . . . . . . . . . . . . . . . . ",
". . . . . . . . . . . . . . . . . . . . . . . . . . . . . . . . . . . . . . . . . . . . . . . . . . . . . . . . . . . . . . . . . . ",
". . . . . . . . . . . . . . . . . . . . . . . . . . . . . . . . . . . . . . . . . . . . . . . + + @ @ @ + + . . . . . . . . . . . . ",
". . . . . . . . . . . . + @ @ # $ $ $ # # @ + . . . . . . . + + @ # # $ $ # # @ + + . . + @ # $ % & & & % % $ # @ + + . . . . . . . ",
". . . . . . . . . . + @ # % * = - ; ; - = & $ @ + . . . . + # % > = - - - , * & $ @ @ @ ' ) ! ~ { ] ^ ^ / ; , = > % # @ . . . . . . ",
". . . . . . . . . . ( _ : < [ } | 1 2 3 4 5 , & # + . . + 6 7 8 9 0 a b c d e f = & % g h i j k l m n o p q r s 5 ; * $ @ + . . . . ",
". . . . . . . . . + # t u [ } v w x y z A B 4 ; & @ + + # C D E F G H I J K L M 5 - N O P Q R S T U V W X Y Z ` B M 5 = $ + . . . . ",
". . . . . . . . . @ % ,  ...v +.x @.#.$.%.&.*.d - % @ @ =.-.;.>.,.'.).!.~.{.].^.M /.(._.:.<.[.}.|.|.1.2.3.4.5.|.[.S 6.^ > # + . . . ",
". . . . . . . . . @ & ; 7.8.9.0.a.b.c.d.e.$.f.R e * $ $ g.7 h.9 0 a i.j.k.l.m.n.o.p.q.r.z s.t.u.v.w.%.x.q y.z.A.v.B.C.d - $ + . . . ",
". . . . . . . . . @ % ; M D.1 E.F.c.G.H.I.k.J.J K.f & > L.M.N.,.'.O.P.Q.R.S.u.T.U.p.O V.W.!.X.Y.Z.%.`.%. +.+++e.@+#+z $+/ % @ . . . ",
". . . . . . . . . + $ , 4 8.a.%+&+G.*+=+-+;+>+|.,+e , '+7 )+!+0 a b ~+{+]+^+~.].U./+_.(+Y._+e.@+~.:+f.<+[+.+}+|+1+$.2+B 5 & @ . . . ",
". . . . . . . . . + # > 5 3+b.4+5+*+6+7+8+9+0+J.a+M / b+;.c+d+'.O.e+f+g+9+|+v.h+i+q.h i j+k+l+m+v.2+a+n.n+o+p+q+_+).f.L r+> @ . . . ",
". . . . . . . . . . @ % ; s+c.t+k.u+7+v+w+x+y+z+f.B A+D B+[.C+a b c f+g+D+E+F+<.L _.G+H+I+J+K+e.J.L+S ` n.M+N+O+P+u.L+B 5 & @ . . . ",
". . . . . . . . . . + # = Q+R+S+m+T+v+U+V+W+X+1+W.K Y+8 Z+`+ @.@e++@@@#@$@1+m.S o.%@i &@*@=@-@;@>@`+T *.K [.m.J.J.s.n.,@/ & @ . . . ",
". . . . . . . . . . . @ * '@)@!@l.~@U+V+{@]@D+l+^@[./@(@h+W._@e+c :@<@[@X+}@s.` $+*.|@I+1@2@3@4@5@6@7@J a+z f.:+|.T.*.d - $ + . . . ",
". . . . . . . . . . . @ > 8@9@0@).E+a@b@c@d@Q.e@@+f@E g@2+v.h@i@:@j@k@l@I.m@|.*.6.L [.n@o@p@q@r@W X Y s@t@B.f.2+T.K $+r+= # + . . . ",
". . . . . . . . . . . @ > u@v+v@~.w@x@y@z@A@B@I.E+C@F D@{.E@F@+@G@H@l@I@R.m+|.,+M 6.<.%.}@J@K@L@M@q 4.o+N@O@W.<+z *.3 / > @ + . . . ",
". . . . . . . . . . . @ > P@U+Q@v.O+q+R@A@S@T@U@j.9 V@%.v.A.F@:@W@X@Y@Z@;+m+`+R 4 4 L L+^@k.`@ #.#q .++#@###$#v.B.K K./ > @ + . . . ",
". . . . . . . . . . . @ > %#V+Q@t.Y.m+&#S@7 *#=#-#,.;#!.A.l.>#j@H@,#Q.'#`@>+`+L  .5 M C.}.$.S.)#!#~#{#N@]#^#/#m@J.&.R  .= # + . . . ",
". . . . . . . . . . . @ > %#(#_#%.!.X.:#7 ;.E <#[#'.}#}@|#P+1#H@2#3#4#=#`@>+`+L 5#6#e ,@A }.J.@+7#8#9#0###a#b#c#}@#+h+6.f % @ . . . ",
". . . . . . . . . . . @ > d#y@_#F+^@A.Y.e#E F f#'.g#`@~@e.O+h#i#,#j#]+9+k#>+`+R I+l#e M B K [.s.~.O+k.m###n#o#p#)#@+:+*. .* # . . . ",
". . . . . . . . . . . @ > q#A@r#F+Z.^@Z.s#F 0 '.O.t#4#k#|+O+u#,#v#w#x#9+k#>+|.,+1@y#7.$+L ,+` A ].|.u.@+z#b#A#B#X+|+~.h+3 - $ + . . ",
". . . . . . . . . . . @ > q#C#D#F+~.~.#+E#0 a O.F#G#l@H#0+X.I#v#w#p.$@4#k#m+|.*.=@p@J#S A C.R o.B *.J {.K#o#L#M#]+N#Y.&.$+f % + . . ",
". . . . . . . . . . . @ > O#7 P#%.Z.J.F+W.Q#.@e+R#<@[@x#S#A.T#U#V#(.W#4#k#m+:+S X#m Y#2+B.T.S Z#M 7.Z#<.`#A# $W#x#8#O+}.B ^ % + . . ",
". . . . . . . . . . + # * .$E +$v.).Z.F+:+@$e+#$$$%$&$X+q+~.*$V#(.O $@9+`@m@{.<.=$-$r@;$u.W.L+*.3  .4 >$o#L#,$'$I.j.P+}.B ^ & + . . ",
". . . . . . . . . . + $ )$>.9 ,.!$X.A.t.:+~$+@{$X+P.9+e@|#F+]$(.O h ^$=#R._+W.n./$r@W ($_$Y.F+z L 7.4 :$A#<$|#k+8#^+!.&.Z#/ % + . . ",
". . . . . . . . . . [$}$F ,.0 '.a O.|$E@{.|.1$2$3$R.'$4$5$V#(.O h 6$H+7$8$S.#+].9$0$a$b$Y c$d$e$f$g$h$A#i$`.X.k.S#m@#+n.3 - $ + . . ",
". . . . . . . . . + j$k$l$m$n$o$p$q$r$>@F+<+s.Z.m+k.S.s$t$u$v$w$x$y$z$A$B$E+J.&.C$D$v.m+E$F$G$H$^#I$J$K$&.%.Y.m@m+).<+*.s = # + . . ",
". . . . . . . . . @ % - d C.`+!.e.^+q+z+w.}.2+:+v.).E@F+&.n.z {.l.l+I.$@'$S.~.f.J [.F+z+S.7#1+l.v.:+B.B.s.v.).>@E@{.a+6./ & @ . . . ",
". . . . . . . . . @ % ; 7.C.}.E@>+1+m+!.`.[.n.h+L+}.f.z K C.a+<+E@_+~@j.^+O+%.[.T n.B.#+Y.@+O+A.J.%.m.{.W.w.#+%.`+n.o.e = # + . . . ",
". . . . . . . . . @ % - 4 R z {.J.$.~.W.&.A ,+L ,+*.^.B $+Z#^.J s.Z.z+P+A.t.B.<.^.,+A L+s.%.t.w.W.{.s.:+:+|.}.[.A Z# ., % @ . . . . ",
". . . . . . . . . + $ * ^ 3 ,+a+L+f.&.h+` $+7.s s 4 s e e s K.R T L+<+`+B.].S o.3 M 6.R K n.z ].T.T.].].J a+K R K.e - % @ + . . . . ",
". . . . . . . . . + @ % = ^ 4 6.o.L B ,@7.r+f - , , , = = - ^ 4 K.o.R ,+L $+M  .^ / ^  .d K.,@Z#B L R L B $+3  ./ = % @ + . . . . . ",
". . . . . . . . . . + @ % * - / ^ 5 5 / - = & % $ $ $ $ $ % * , f ^ 5 r+5 / ; = > & > * , ; f ^ r+e  .e r+^ ; = & $ @ . . . . . . . ",
". . . . . . . . . . . + @ # $ % & & & % $ # @ + + + + + + @ # $ % & & & & & % $ # @ @ # # $ % & > * * * > & % # @ + . . . . . . . . ",
". . . . . . . . . . . . . + + + + + + + + + . . . . . . . . + + + + + + + + + + . . . . + + + @ @ # # # @ @ + + . . . . . . . . . . ",
". . . . . . . . . . . . . . . . . . . . . . . . . . . . . . . . . . . . . . . . . . . . . . . . . . . . . . . . . . . . . . . . . . ",
". . . . . . . . . . . . . . . . . . . . . . . . . . . . . . . . . . . . . . . . . . . . . . . . . . . . . . . . . . . . . . . . . . "};
