/* XPM */
static char * ooo_gulls_xpm[] = {
"48 48 217 2",
"  	c None",
". 	c #0368A2",
"+ 	c #0367A1",
"@ 	c #0368A1",
"# 	c #03679F",
"$ 	c #03669E",
"% 	c #E0E3E4",
"& 	c #D1DADF",
"* 	c #2E7EAC",
"= 	c #03659C",
"- 	c #E4E4E4",
"; 	c #D4DBDF",
"> 	c #2D7DAA",
", 	c #03659D",
"' 	c #03649B",
") 	c #E3E3E3",
"! 	c #FBFBFB",
"~ 	c #EFEFEF",
"{ 	c #D2D9DE",
"] 	c #2C7CA8",
"^ 	c #03639A",
"/ 	c #E2E2E2",
"( 	c #FAFAFA",
"_ 	c #EEEEEE",
": 	c #D1D8DC",
"< 	c #2B7AA7",
"[ 	c #036298",
"} 	c #E0E0E0",
"| 	c #EDEDED",
"1 	c #E1E1E1",
"2 	c #CFD7DB",
"3 	c #2A79A5",
"4 	c #036299",
"5 	c #036197",
"6 	c #DFDFDF",
"7 	c #F9F9F9",
"8 	c #ECECEC",
"9 	c #CDD5D9",
"0 	c #2876A3",
"a 	c #036095",
"b 	c #DEDEDE",
"c 	c #EBEBEB",
"d 	c #CCD4D8",
"e 	c #2775A1",
"f 	c #036196",
"g 	c #035F94",
"h 	c #DDDDDD",
"i 	c #F8F8F8",
"j 	c #CAD2D7",
"k 	c #2773A0",
"l 	c #035E93",
"m 	c #DBDBDB",
"n 	c #F7F7F7",
"o 	c #EAEAEA",
"p 	c #DCDCDC",
"q 	c #C8D0D5",
"r 	c #26729E",
"s 	c #035F93",
"t 	c #035E91",
"u 	c #DADADA",
"v 	c #E8E8E8",
"w 	c #C6CED3",
"x 	c #25719C",
"y 	c #035D90",
"z 	c #D9D9D9",
"A 	c #F6F6F6",
"B 	c #E7E7E7",
"C 	c #C5CED3",
"D 	c #25709B",
"E 	c #035C8F",
"F 	c #D8D8D8",
"G 	c #F5F5F5",
"H 	c #C3CCD1",
"I 	c #246F99",
"J 	c #035C8E",
"K 	c #035B8D",
"L 	c #D6D6D6",
"M 	c #F4F4F4",
"N 	c #E6E6E6",
"O 	c #D7D7D7",
"P 	c #C2CBD0",
"Q 	c #236D98",
"R 	c #035A8C",
"S 	c #D5D5D5",
"T 	c #F3F3F3",
"U 	c #BFC8CD",
"V 	c #226C97",
"W 	c #03598A",
"X 	c #D4D4D4",
"Y 	c #BEC7CD",
"Z 	c #216A95",
"` 	c #035889",
" .	c #D3D3D3",
"..	c #F2F2F2",
"+.	c #BDC6CC",
"@.	c #035788",
"#.	c #D1D1D1",
"$.	c #F1F1F1",
"%.	c #03669F",
"&.	c #6CBFEF",
"*.	c #7EB8BF",
"=.	c #BAB24F",
"-.	c #C2B345",
";.	c #D2D2D2",
">.	c #035787",
",.	c #035686",
"'.	c #D0D0D0",
").	c #F0F0F0",
"!.	c #7EC7F1",
"~.	c #78B4D7",
"{.	c #83C4E2",
"].	c #B0B368",
"^.	c #C7B545",
"/.	c #035585",
"(.	c #CFCFCF",
"_.	c #036399",
":.	c #8FD0F4",
"<.	c #86BDDB",
"[.	c #595B5C",
"}.	c #7FADC7",
"|.	c #9BC6C5",
"1.	c #B7B769",
"2.	c #C4B751",
"3.	c #035583",
"4.	c #CDCDCD",
"5.	c #036096",
"6.	c #A1D8F6",
"7.	c #A1D7F5",
"8.	c #647077",
"9.	c #515151",
"0.	c #575B5D",
"a.	c #97C7E1",
"b.	c #A4D4E6",
"c.	c #A9CCC5",
"d.	c #CECECE",
"e.	c #025482",
"f.	c #CCCCCC",
"g.	c #AADCF7",
"h.	c #83A0B0",
"i.	c #4A4A4A",
"j.	c #5D676C",
"k.	c #A7D7F2",
"l.	c #95BBD0",
"m.	c #626E75",
"n.	c #A4D2EB",
"o.	c #025381",
"p.	c #CBCBCB",
"q.	c #035D91",
"r.	c #9FCCE5",
"s.	c #494B4D",
"t.	c #434343",
"u.	c #6B7E89",
"v.	c #819FAF",
"w.	c #454747",
"x.	c #5E6C73",
"y.	c #A8DAF4",
"z.	c #025380",
"A.	c #02527F",
"B.	c #CACACA",
"C.	c #607078",
"D.	c #3D3D3D",
"E.	c #6A7F8A",
"F.	c #02517E",
"G.	c #C8C8C8",
"H.	c #035A8B",
"I.	c #363636",
"J.	c #C9C9C9",
"K.	c #02507C",
"L.	c #C7C7C7",
"M.	c #E9E9E9",
"N.	c #024F7B",
"O.	c #C6C6C6",
"P.	c #024E7A",
"Q.	c #C5C5C5",
"R.	c #024D78",
"S.	c #C3C3C3",
"T.	c #C4C4C4",
"U.	c #024D77",
"V.	c #C2C2C2",
"W.	c #024C77",
"X.	c #024C76",
"Y.	c #C1C1C1",
"Z.	c #E5E5E5",
"`.	c #024C75",
" +	c #024B74",
".+	c #C0C0C0",
"++	c #024A73",
"@+	c #BEBEBE",
"#+	c #024A72",
"$+	c #BFBFBF",
"%+	c #024971",
"&+	c #BDBDBD",
"*+	c #02486F",
"=+	c #024870",
"-+	c #BCBCBC",
";+	c #02476F",
">+	c #BBBBBB",
",+	c #02476E",
"'+	c #02466D",
")+	c #B9B9B9",
"!+	c #024266",
"~+	c #BABABA",
"{+	c #02456C",
"]+	c #B8B8B8",
"^+	c #024063",
"/+	c #02446A",
"(+	c #B7B7B7",
"_+	c #024469",
":+	c #B5B5B5",
"<+	c #B6B6B6",
"[+	c #024369",
"}+	c #024368",
"|+	c #B4B4B4",
"1+	c #024367",
"2+	c #B3B3B3",
"3+	c #024165",
"4+	c #023F62",
"            . . . . . . . . . . . . . . . . . . . .               . . . . . . . . . .           ",
"          + + + + + + + + + + + + + + + + + + + + + + +         @ @ @ @ @ @ @ @ @ @ @ @         ",
"        # # # # # # # # # # # # # # # # # # # # # # # # #       # # # # # # # # # # # #         ",
"        $ $ $ % % % % % % % % % % % % % % % % % % & * $ $ $       $ $ $ $ $ $ $ $ $ $ $         ",
"        = = = - - - - - - - - - - - - - - - - - - - ; > = = =       , , , , , , , , , ,         ",
"        ' ' ' ) ) ! ! ! ! ! ! ! ! ! ! ! ! ! ! ! ! ~ ) { ] ' ' '       ' ' ' ' ' ' ' ' '         ",
"        ^ ^ ^ / / ( ( ( ( ( ( ( ( ( ( ( ( ( ( ( ( ( _ / : < ^ ^ ^       ^ ^ ^ ^ ^ ^ ^ ^         ",
"        [ [ [ } } ( ( ( ( ( ( ( ( ( ( ( ( ( ( ( ( ( ( | 1 2 3 [ [ [       4 4 4 4 4 4 4         ",
"        5 5 5 6 6 7 7 7 7 7 7 7 7 7 7 7 7 7 7 7 7 7 7 7 8 6 9 0 5 5 5       5 5 5 5 5 5         ",
"        a a a b b 7 7 7 7 7 7 7 7 7 7 7 7 7 7 7 7 7 7 7 7 c b d e a a a       f f f f f         ",
"        g g g h h i i i i i i i i i i i i i i i i i i i i i c h j k g g g       a a a a         ",
"        l l l m m n n n n n n n n n n n n n n n n n n n n n n o p q r l l l       s s           ",
"        t t t u u n n n n n n n n n n n n n n n n n n n n n n n v u w x t t t                   ",
"        y y y z z A A A A A A A A A A A A A A A A A A A A A A A A B z C D y y y                 ",
"        E E E F F G G G G G G G G G G G G G G G G G G G G G G G G G B F H I J J J               ",
"        K K K L L M M M M M M M M M M M M M M M M M M M M M M M M M M N O P Q K K K             ",
"        R R R S S T T T T T T T T T T T T T T T T T T T T T T T T T T T - S U V R R R           ",
"        W W W X X T T T T T T T T T T T T T T T T T T T T T T T T T T T T - X Y Z W W           ",
"        ` ` `  . ........ . . . . . . . ..... . . . . . . . . . . . . . ....)  .+.` ` `         ",
"        @.@.@.#.#.$.$.$.%.%.%.%.%.%.%.%.$.$.%.&.&.&.&.&.&.&.&.*.=.-.-.%.$.$.$.;.;.>.>.>.        ",
"        ,.,.,.'.'.).).).).).).).).).).).).).= !.!.!.~.!.!.!.!.{.].^.^.= ).).).'.'.,.,.,.        ",
"        /././.(.(.~ ~ ~ ~ ~ ~ ~ ~ ~ ~ ~ ~ ~ _.:.:.<.[.}.:.:.:.:.|.1.2._.~ ~ ~ (.(./././.        ",
"        3.3.3.4.4._ _ _ 5.5.5.5.5.5.5.5._ _ 5 6.7.8.9.0.a.6.6.6.6.b.c.5 _ _ _ d.d.3.3.3.        ",
"        e.e.e.f.f.| | | l l l l l l l l | | g g.h.i.i.i.j.k.g.l.m.n.g.g | | | f.f.e.e.e.        ",
"        o.o.o.p.p.8 8 8 8 8 8 8 8 8 8 8 8 8 q.r.s.t.t.t.t.u.v.w.t.x.y.q.8 8 8 p.p.z.z.z.        ",
"        A.A.A.B.B.c c c c c c c c c c c c c J C.D.D.D.D.D.D.D.D.D.D.E.J c c c B.B.A.A.A.        ",
"        F.F.F.G.G.o o o W W W W W W W W o o H.I.I.I.I.I.I.I.I.I.I.I.I.H.o o o J.J.F.F.F.        ",
"        K.K.K.L.L.M.M.M.>.>.>.>.>.>.>.>.M.M.` ` ` ` ` ` ` ` ` ` ` ` ` ` M.M.M.L.L.K.K.K.        ",
"        N.N.N.O.O.v v v v v v v v v v v v v v v v v v v v v v v v v v v v v v O.O.N.N.N.        ",
"        P.P.P.Q.Q.B B B B B B B B B B B B B B B B B B B B B B B B B B B B B B Q.Q.P.P.P.        ",
"        R.R.R.S.S.N N N F.F.F.F.F.F.F.F.F.F.F.F.F.F.F.F.F.F.F.F.F.F.F.F.B B B T.T.R.R.R.        ",
"        U.U.U.V.V.N N N N.N.N.N.N.N.N.N.N.N.N.N.N.N.N.N.N.N.N.N.N.N.N.N.N N N V.V.W.W.W.        ",
"        X.X.X.Y.Y.Z.Z.Z.Z.Z.Z.Z.Z.Z.Z.Z.Z.Z.Z.Z.Z.Z.Z.Z.Z.Z.Z.Z.Z.Z.Z.Z.Z.Z.Z.Y.Y.`.`.`.        ",
"         + + +.+.+Z.Z.Z.Z.Z.Z.Z.Z.Z.Z.Z.Z.Z.Z.Z.Z.Z.Z.Z.Z.Z.Z.Z.Z.Z.Z.Z.Z.Z.Z..+.+ + + +        ",
"        ++++++@+@+- - - #+#+#+#+#+#+#+#+#+#+#+#+#+#+#+#+#+#+#+#+#+#+#+#+Z.Z.Z.$+$+++++++        ",
"        %+%+%+&+&+- - - *+*+*+*+*+*+*+*+*+*+*+*+*+*+*+*+*+*+*+*+*+*+*+*+- - - &+&+%+%+%+        ",
"        =+=+=+-+-+) ) ) ) ) ) ) ) ) ) ) ) ) ) ) ) ) ) ) ) ) ) ) ) ) ) ) ) ) ) -+-+=+=+=+        ",
"        ;+;+;+>+>+) ) ) ) ) ) ) ) ) ) ) ) ) ) ) ) ) ) ) ) ) ) ) ) ) ) ) ) ) ) >+>+,+,+,+        ",
"        '+'+'+)+)+/ / / !+!+!+!+!+!+!+!+!+!+!+!+!+!+!+!+!+!+/ / / / / / / / ) ~+~+'+'+'+        ",
"        {+{+{+]+]+/ / / ^+^+^+^+^+^+^+^+^+^+^+^+^+^+^+^+^+^+/ / / / / / / / / ]+]+{+{+{+        ",
"        /+/+/+(+(+1 1 1 1 1 1 1 1 1 1 1 1 1 1 1 1 1 1 1 1 1 1 1 1 1 1 1 1 1 1 (+(+/+/+/+        ",
"        _+_+_+:+:+1 1 1 1 1 1 1 1 1 1 1 1 1 1 1 1 1 1 1 1 1 1 1 1 1 1 1 1 1 1 <+<+[+[+[+        ",
"        }+}+}+|+|+} } } } } } } } } } } } } } } } } } } } } } } } } } } } } } |+|+1+1+1+        ",
"        !+!+!+2+2+2+2+2+2+2+2+2+2+2+2+2+2+2+2+2+2+2+2+2+2+2+2+2+2+2+2+2+2+2+2+2+2+!+!+!+        ",
"        3+3+3+2+2+2+2+2+2+2+2+2+2+2+2+2+2+2+2+2+2+2+2+2+2+2+2+2+2+2+2+2+2+2+2+2+2+3+3+3+        ",
"        ^+^+^+^+^+^+^+^+^+^+^+^+^+^+^+^+^+^+^+^+^+^+^+^+^+^+^+^+^+^+^+^+^+^+^+^+^+^+^+^+        ",
"          4+4+4+4+4+4+4+4+4+4+4+4+4+4+4+4+4+4+4+4+4+4+4+4+4+4+4+4+4+4+4+4+4+4+4+4+4+4+          ",
"            4+4+4+4+4+4+4+4+4+4+4+4+4+4+4+4+4+4+4+4+4+4+4+4+4+4+4+4+4+4+4+4+4+4+4+4+            "};
