/* XPM */
static char * F:\Documents and Settings\Lee\Desktop\OOo Icons\collected_gulls\gif\main_32_xpm[] = {
"32 32 220 2",
"  	c None",
". 	c #000000",
"+ 	c #313131",
"@ 	c #939393",
"# 	c #3B3E3B",
"$ 	c #363A36",
"% 	c #858785",
"& 	c #2A2A2A",
"* 	c #3C3C3C",
"= 	c #5B5B5B",
"- 	c #040504",
"; 	c #373737",
"> 	c #191D19",
", 	c #1E1E1E",
"' 	c #646364",
") 	c #404340",
"! 	c #151915",
"~ 	c #919391",
"{ 	c #363636",
"] 	c #6B6B6B",
"^ 	c #292B29",
"/ 	c #797C79",
"( 	c #292829",
"_ 	c #A3A3A3",
": 	c #5A5E5A",
"< 	c #404440",
"[ 	c #353835",
"} 	c #898989",
"| 	c #252525",
"1 	c #4E4845",
"2 	c #4F4945",
"3 	c #4E5656",
"4 	c #4A4A49",
"5 	c #7F7F7F",
"6 	c #010201",
"7 	c #6A6962",
"8 	c #7F7976",
"9 	c #433D3A",
"0 	c #BAF0FF",
"a 	c #BBF1FF",
"b 	c #CBFDFF",
"c 	c #7F91A7",
"d 	c #020000",
"e 	c #ADD1F1",
"f 	c #B7EFFF",
"g 	c #89D5F8",
"h 	c #8CE8FF",
"i 	c #38426B",
"j 	c #050000",
"k 	c #25243E",
"l 	c #546970",
"m 	c #90A6AB",
"n 	c #B6C8D1",
"o 	c #AEC1C9",
"p 	c #5E7279",
"q 	c #5E6C70",
"r 	c #91E5FF",
"s 	c #5AC0F8",
"t 	c #62CBFF",
"u 	c #3489BD",
"v 	c #0E0000",
"w 	c #126E9E",
"x 	c #55ACF9",
"y 	c #64D2FF",
"z 	c #5DC8FF",
"A 	c #5BC8FF",
"B 	c #5BCBFF",
"C 	c #63D3FF",
"D 	c #5DC5FF",
"E 	c #5BC0F8",
"F 	c #40B4F8",
"G 	c #43B7FB",
"H 	c #27A8EF",
"I 	c #00000B",
"J 	c #0A364F",
"K 	c #1DA9FB",
"L 	c #4CC3FF",
"M 	c #42B8FA",
"N 	c #42BBFC",
"O 	c #3FC2FF",
"P 	c #2DA4E7",
"Q 	c #378BBC",
"R 	c #3182AF",
"S 	c #2D7BA9",
"T 	c #2485BA",
"U 	c #37B3FA",
"V 	c #41B5F8",
"W 	c #78CDF8",
"X 	c #7AD2FE",
"Y 	c #649FBE",
"Z 	c #64493D",
"` 	c #69CBFA",
" .	c #7ED3FE",
"..	c #78CFFB",
"+.	c #7EE1FF",
"@.	c #7AA9ED",
"#.	c #1F4859",
"$.	c #001120",
"%.	c #6B7C81",
"&.	c #6FD0FF",
"*.	c #79CDF8",
"=.	c #77CCF8",
"-.	c #7ADAFF",
";.	c #79CFFA",
">.	c #7CD1FC",
",.	c #7BD1FC",
"'.	c #54595B",
").	c #00090B",
"!.	c #4F6D80",
"~.	c #91DEFF",
"{.	c #79D7FF",
"].	c #42B5F8",
"^.	c #49BBFC",
"/.	c #20BCFF",
"(.	c #0D1D22",
"_.	c #132931",
":.	c #279CDE",
"<.	c #4CC6FF",
"[.	c #42B7FA",
"}.	c #48B8F8",
"|.	c #4ABBFB",
"1.	c #34B3FD",
"2.	c #081A22",
"3.	c #074C72",
"4.	c #55D5FF",
"5.	c #4BBDFE",
"6.	c #56CFFF",
"7.	c #003050",
"8.	c #010000",
"9.	c #073B5C",
"0.	c #4AC0FF",
"a.	c #48B9F9",
"b.	c #4CBBFA",
"c.	c #4EC0FF",
"d.	c #4CCBFF",
"e.	c #0D7CB7",
"f.	c #122931",
"g.	c #55D6FF",
"h.	c #49B8F8",
"i.	c #4ABCFE",
"j.	c #51C5FF",
"k.	c #54CFFF",
"l.	c #23AEFD",
"m.	c #1177AF",
"n.	c #294D5C",
"o.	c #030B0D",
"p.	c #000509",
"q.	c #289DDE",
"r.	c #42B6F8",
"s.	c #40C1FF",
"t.	c #40A1D5",
"u.	c #004B79",
"v.	c #064E72",
"w.	c #40C2FF",
"x.	c #43B6F8",
"y.	c #77D3FF",
"z.	c #71D0FF",
"A.	c #98E6FF",
"B.	c #325768",
"C.	c #000A0A",
"D.	c #84D3FF",
"E.	c #728D9A",
"F.	c #708E9D",
"G.	c #C1D3DB",
"H.	c #1E160B",
"I.	c #130F0F",
"J.	c #32332E",
"K.	c #42443E",
"L.	c #42433F",
"M.	c #0D0B09",
"N.	c #393430",
"O.	c #799AAA",
"P.	c #93A3A5",
"Q.	c #8EA2A5",
"R.	c #858989",
"S.	c #1C1B17",
"T.	c #3A322E",
"U.	c #9BA9AA",
"V.	c #C8DDE1",
"W.	c #E0F6F8",
"X.	c #EEFFFF",
"Y.	c #C3D9DB",
"Z.	c #D9EFF1",
"`.	c #8D9D9F",
" +	c #5F9CB9",
".+	c #5896B5",
"++	c #B9E1F6",
"@+	c #1E1C17",
"#+	c #625B59",
"$+	c #6BB1D2",
"%+	c #609EBC",
"&+	c #5B98B5",
"*+	c #5995B3",
"=+	c #5794B1",
"-+	c #5A96B4",
";+	c #767670",
">+	c #878079",
",+	c #0D0300",
"'+	c #99F6FF",
")+	c #ACC8D2",
"!+	c #090000",
"~+	c #80AFC1",
"{+	c #8EE8FF",
"]+	c #95EAFF",
"^+	c #99EEFF",
"/+	c #92DBFF",
"(+	c #2E3D53",
"_+	c #89A8B7",
":+	c #8DE2FF",
"<+	c #88D4F8",
"[+	c #7FB3CA",
"}+	c #2A160C",
"|+	c #ADD9EE",
"1+	c #88DEFF",
"2+	c #83CAEB",
"3+	c #92C3DA",
"4+	c #86D9FF",
"5+	c #88D5FA",
"6+	c #87D7FC",
"7+	c #FFFFFF",
"7+7+7+7+7+7+7+7+7+7+7+7+7+7+7+7+7+7+7+7+7+7+7+7+7+7+7+7+7+7+7+7+",
"7+7+7+7+7+7+7+7+7+7+7+7+7+7+7+7+7+7+7+7+7+7+7+7+7+7+7+7+7+7+7+7+",
"7+7+7+7+7+7+7+7+7+7+7+7+7+7+7+7+7+7+7+7+7+7+7+7+7+7+7+7+7+7+7+7+",
"7+7+7+7+7+7+7+7+7+7+7+7+7+7+7+7+7+7+7+7+7+7+7+7+7+7+W.o % / o W.",
"7+7+7+7+7+7+7+7+7+7+7+7+7+7+7+7+7+7+7+7+7+7+7+7+W.] , . p.I.4 W.",
"7+7+7+7+7+7+7+7+7+7+7+7+7+7+7+7+7+7+7+7+7+7+7+V.( . . ( `.7+7+7+",
"7+7+7+7+7+7+7+7+7+7+7+7+7+7+7+7+7+7+7+7+7+7+V., . p.4 W.7+7+7+7+",
"7+7+7+7+7+7+7+7+7+7+7+7+7+7+7+7+7+7+7+G._ % ( . p.] 7+7+7+7+7+7+",
"7+7+7+7+7+7+7+7+7+7+7+7+7+7+7+7+o L., p.. . . . L.7+7+7+7+7+7+7+",
"|+|+|+|+|+|+|+|+|+|+|+|+|+|+e (+I.. . p.(.o.. ! 3+|+|+|+|+|+|+|+",
"g g g g g g g g g g g g g 2+k p.p._.B.~+~+~+!.l g g g g g g g g ",
"x x x x x x x x x x x x x #.p.2.R x x x x x x x x x x x x x x x ",
"G G G G G G G G G G G G u p.B.G G G G G G :.u u :.G G G G G G G ",
"z.z.z.z.z.z.z.z.z.z.z.z.!.%+z.z.z.z.$+(+(.o.. o.B.z.z.z.z.z.z.z.",
"*.*.*.*.*.*.*.*.*.*.*.*.*.*.*.*.*.n.o.. . (.l *.*.*.*.*.*.*.*.*.",
"G G G G G G G G G G G G G G G P 2.p.. p.f.P G G G G G G G G G G ",
"G G G G G G G G G G G G G G U 2.. . ).#.G G G G G G G G G G G G ",
"G G G G G G G G G G G G G G J . . p.#.G G G G G G G G G G G G G ",
"G G G G G G G G G G G G G S ).. . f.G G G G G G G G G G G G G G ",
"G G G G G G G G G G P w #.2.. . 2.P G G G G G G G G G G G G G G ",
"G G G G G G G P #.2.o.. . . . . #.G G G G G G G G G G G G G G G ",
"*.*.*.*.*.2+B.(.. . . . . . . ! @.*.*.*.*.*.*.*.*.*.*.*.*.*.*.*.",
"Z.Z.Z.Z.G.+ . . . . > ( | | > { Z.Z.Z.Z.Z.Z.Z.Z.Z.Z.Z.Z.Z.Z.Z.Z.",
"X.X.X.V., . . o.{ P.Z.X.X.X.W.Z.X.X.X.X.X.X.X.X.X.X.X.X.X.X.X.X.",
"|+|+e _.. . | ~+|+|+|+|+|+|+|+|+|+|+|+|+|+|+|+|+|+|+|+|+|+|+|+|+",
"7+7+;+. I.] 7+7+7+7+7+7+7+7+7+7+7+7+7+7+7+7+7+7+7+7+7+7+7+7+7+7+",
"g 3+! 2.F.g g g g g g g g g g g g g g g g g g g g g g g g g g g ",
"g l o.[+g g g g g g g g g g g g g g g g g g g g g g g g g g g g ",
"g l 3+g g g g g g g g g g g g g g g g g g g g g g g g g g g g g ",
"g g g g g g g g g g g g g g g g g g g g g g g g g g g g g g g g ",
"g g g g g g g g g g g g g g g g g g g g g g g g g g g g g g g g ",
"g g g g g g g g g g g g g g g g g g g g g g g g g g g g g g g g "};
